<svg height="645pt" preserveAspectRatio="xMidYMid meet" viewBox="0 0 645 645" width="645pt" xmlns="http://www.w3.org/2000/svg"><g transform="matrix(.1 0 0 -.1 0 645)"><path d="m2170 6216c0-24-3-26-47-26h-47l43-36c23-20 40-42 37-50-9-24-298-404-307-404-5 0-14-12-20-26-5-15-23-44-39-64l-30-37-102-8-103-7 89-83 88-83-177-311c-98-171-180-309-184-308s-46-34-94-78l-88-80 93-6c149-11 258-10 258 1 0 16 40 12 46-5 4-8 13-15 21-15 16 0 213 140 213 152 0 4 14 14 30 23l30 16 1 272c1 149 3 263 6 252 14-67 14-68 25-57 9 9 8 18-1 38-6 15-10 28-8 31 2 2 116-21 253-51l249-54 29 27c24 24 26 32 17 49-21 40-7 57 23 27 9-10 34-15 70-15h56v-45c0-25-2-45-5-45s-30 18-60 40-55 37-55 33c-1-4-4-27-9-49l-8-42 65-7c49-5 67-4 73 7 7 10 9 9 9-4 0-16 12-18 120-18 110 0 120-2 130-21l11-20 35 20c28 17 52 21 122 21 111-1 293-25 302-40 17-28 74 2 158 84 88 85 87 85 66 5-4-14 16-17 153-22 87-4 200-7 251-7 70 0 94-3 98-14 3-7 1-54-5-102-6-54-6-90 0-92 5-2 9-47 9-100 0-82 2-93 13-78 12 16 15 5 26-85 7-57 15-113 17-125 4-17-2-24-32-35l-37-14 41-28c26-16 42-35 42-47 0-16 5-19 29-14 22 5 47-4 111-41l82-48-143-73c-79-41-147-74-152-74-4 0-38-18-74-40-37-22-71-40-75-40-5 0-20 7-34 16-22 15-36 15-134 4-60-7-121-9-137-5-15 5-48 9-73 10s-111 18-192 37c-82 20-148 31-148 26s13-35 29-66c27-52 34-91 81-436 28-208 52-391 52-405 1-14-66-187-147-384-81-196-146-358-144-360 2-1 22-16 44-33 22-16 57-40 78-53 44-27 51-65 15-75-13-3-138-36-278-72s-256-67-258-69c-2-1 8-16 22-32 14-17 30-42 35-56 11-28 13-27-91-52-18-5-47-33-88-86-33-43-65-81-70-84s-41 11-81 30c-39 20-73 35-75 33-1-2 14-31 36-65 33-52 36-64 24-73-17-15-8-20-209 93-93 53-170 95-171 94s22-74 52-161 54-164 54-170c0-7-14-20-32-30l-32-19 51-19 50-20 77-241c78-246 84-271 66-282-16-10-12-23 10-30 15-5 19-12 15-26-4-13-2-19 8-19 8 0 17-10 20-22 6-21 7-21 26-4 13 12 27 16 38 11 10-3 34-8 53-11 73-8 100-15 95-25-4-5 12-9 37-10 24-1 54-4 67-8 21-6 22-8 7-20-24-20-20-29 16-33 26-2 34-10 49-45l18-42-125-113c-68-62-124-117-124-122 0-4 77-129 171-276l170-269-15-30c-9-16-16-32-16-36 0-3 83-5 184-5 182 0 286 12 286 34 1 26-144 611-151 614-11 5-99 128-99 140 0 5 19 36 43 68 96 132 197 284 197 297 0 8 18 19 40 26 34 10 40 16 35 32-6 17-1 19 55 19 38 0 59 4 55 10s12 10 40 10h45l-16 25-16 25 38 1c22 0 53 2 69 3 17 1 51 3 78 4 38 2 47 5 47 20 0 10 5 23 12 30 9 9 7 16-7 32-18 20-18 20 23 20 49 0 52 7 17 40-29 27-32 40-10 40 27 0 64-30 58-47-5-13 0-15 25-11 23 3 32 1 32-9 0-9 15-2 40 18 35 28 43 31 64 21 22-10 25-8 28 11 2 12-7 37-21 55l-24 32 119 115 119 114-35 1-35 1 24 17c70 49 70 47 32 86l-35 36h28c15 0 25-4 21-10s7-10 25-10 29 4 25 10c-3 6 0 10 8 10s22 12 32 26c14 22 15 31 5 53-12 25-8 29 91 123l104 97-51 53c-228 240-336 360-328 367 5 4 68 24 139 45 72 21 167 49 213 62l82 25-134 147c-74 81-133 148-131 150 1 1 101-22 221-51 294-73 281-71 288-42 5 19-32 93-172 342-99 175-189 336-202 357l-24 39 85-6c46-4 174-9 283-13l200-7-20 25c-10 14-64 76-119 137-85 95-106 113-142 122-48 13-48 12-31 38 10 17 6 26-36 71-26 28-46 53-44 55 2 3 33-4 68-15s66-18 68-16c8 8 132 462 132 484 0 19-4 21-24 16-19-4-38 9-108 73l-85 78 64 68c34 37 63 73 63 80s-20 33-45 57-45 47-45 51 23 1 51-6c50-14 51-13 46 8-3 12-9 40-13 62l-7 40 22-19 21-19v139 139l-41 48c-22 26-47 47-54 47-13 0-43 26-183 154-31 29-34 30-47 13-11-16-13-16-19-1-3 8-6 23-6 33 0 9-13 30-29 45l-30 28-11-43c-6-24-22-80-34-124l-22-80-54 3-55 4 29-31c68-72 6-27-238 169-244 197-261 208-317 219-32 7-59 13-59 15s26 23 58 47c31 24 91 69 132 102l74 58-73-2c-67-2-73-4-82-27-5-13-20-39-32-56l-22-31-5 35c-4 25-10 34-20 30-23-8-269-8-327-1-29 4-53 4-53 0 0-3 7-23 15-42 30-71 23-71-115-2-71 36-133 65-138 65s-16-16-25-36c-23-47-40-39-52 24-10 49-35 94-35 62 0-7-3-10-6-7-4 4-19-2-33-13l-27-18-219 63c-183 54-233 64-296 65-108 0-139 8-136 33 1 11-4 22-10 24-8 3-13-5-13-21zm35-146c3-5-1-10-10-10s-13 5-10 10c3 6 8 10 10 10s7-4 10-10zm-319-610c30 0 30-9 2-45l-21-27-18 33c-23 42-23 53-3 45 9-3 27-6 40-6zm1064-150c0-5-2-10-4-10-3 0-8 5-11 10-3 6-1 10 4 10 6 0 11-4 11-10zm-1481-627c6-4-32-73-40-73-4 0-13 27-22 60l-15 60 37-22c20-12 38-23 40-25zm2221-655c0-4-11-8-25-8-18 0-25 5-25 18 0 10 3 22 7 25 7 8 43-21 43-35zm716-403c-8-11-23-19-33-18-15 2-22-8-32-47-7-28-16-52-21-55-6-4-94 147-298 515-20 35 21 0 186-165 198-196 211-211 198-230zm-697-64c9-6 12-26 10-67l-4-59 275-6c151-4 284-7 296-8 21-1 21-1 4-63-9-34-22-64-28-66-7-2-12-20-12-40s-5-54-11-76l-11-38-22 21c-26 24-35 25-88 9l-39-12 3-65c3-61 1-66-19-69-17-2-29-21-53-80-18-42-40-95-51-118-10-22-27-65-39-95s-27-59-35-64c-7-6-15-24-17-40-3-26-17-6-102 145-245 433-239 423-274 434-31 11-32 12-17 33 14 21 14 26-5 64-12 22-19 43-16 46s23 1 44-4l38-10 39 75c26 48 50 79 68 88 28 15 28 23-1 57-14 16-13 17 19 17 19 0 40-4 48-9zm107-1086c-32-89-31-83-5-111l24-27-27 5c-16 3-28 2-28-1s27-23 60-45c33-21 62-42 65-45 2-4-72-121-165-260l-168-253-11 53c-25 123-111 527-119 564-6 22-13 62-17 88l-7 49 201-4c128-2 200-7 197-13zm-1356-675c25-35 22-41-40-110-29-33-31-33-26-10 3 14 8 53 12 88 8 71 21 78 54 32zm1210-183c0-7-10-42-22-78l-22-64-17 85c-25 117-26 114 21 90 22-11 40-26 40-33zm-178-349c-9-9-15-9-24 0s-7 12 12 12 21-3 12-12zm-701-343c26 9 24-7-6-35l-25-23 1 44c1 24 3 36 6 26 3-12 10-16 24-12z"/><path d="m2886 6158c14-48 22-54 30-24 5 19 2 31-7 37-23 15-31 10-23-13z"/><path d="m1460 5645c19-19 38-35 42-35s8 16 8 35c0 34-1 35-42 35h-42z"/><path d="m1388 4208c-199-348-200-350-191-358 4-4 31-15 59-25 51-18 52-18 108 5 50 20 55 25 50 46-3 13-4 24-1 24s83-27 178-60c162-57 217-67 206-37-9 25-30 92-115 367l-88 285-31 3c-31 3-32 1-175-250z"/><path d="m1960 4168c0-18-3-51-7-73-6-35-5-39 9-27 9 7 21 26 28 41 9 24 9 35-4 60-21 39-26 39-26-1z"/><path d="m2484 4106c-11-18-25-26-45-26-26 0-28-2-23-29 7-34-10-71-33-71-12 0-13 3-4 14 7 8 8 22 3 36-7 20-21 0-103-151-52-96-94-178-94-184 0-5-15-31-33-57-17-26-32-51-32-55 0-5 100-36 223-70 217-59 222-60 242-42 19 18 19 20 2 48-22 38-21 43 5 39 22-3 31-22 43-90 7-45 9-45 155-51 75-3 99-1 83 6-14 6-22 18-21 31 1 12-17 49-40 83s-42 67-42 73c0 18-190 320-202 320-5 0-8-15-7-32 2-18-2-42-9-53-10-17-11-14-12 28 0 53-4 55-69 32-22-8-41-12-41-10 0 3 21 32 46 65 28 35 44 65 41 74-4 9 1 20 11 25 13 7 15 15 7 37-13 37-30 40-51 10z"/><path d="m1937 3923c-3-5-8-46-12-93-3-47-8-92-11-101-4-14 9-17 82-23 47-4 88-5 91-2 3 2-21 54-54 115-39 74-64 111-75 111-9 0-19-3-21-7z"/><path d="m1417 3776c-4-15-6-31-2-34 10-10 16 6 13 35l-3 28z"/><path d="m1901 3594c0-11 3-14 6-6 3 7 2 16-1 19-3 4-6-2-5-13z"/><path d="m1952 3172c-41-13-51-20-43-29 8-10 8-10-1-3-16 13-30 13-65-2-15-6-36-13-46-15-25-4-261-75-266-79-9-8 11-54 21-48 7 4 8 3 4-4-4-6 5-39 19-73 15-34 24-67 21-74-2-7 11-34 30-60 43-61 41-60 57-47 11 9 18-27 42-198 20-147 33-210 42-210 13 0 553 438 553 449 0 3-4 12-9 20-8 13-50 13-293 4-156-6-284-9-286-8-1 1 67 84 153 185 122 144 153 186 144 196-14 17-11 17-77-4z"/><path d="m1930 2257c0-2 7-24 16-50 18-53 31-58 62-24l22 24-50 27c-27 15-50 26-50 23z"/><path d="m1770 2216c0-33 11-46 31-35 22 11 18 24-12 39-15 8-19 7-19-4z"/><path d="m4230 1780c0-5 5-10 10-10 6 0 10 5 10 10 0 6-4 10-10 10-5 0-10-4-10-10z"/><path d="m4225 1709c-9-23-125-373-125-376 0-2 6-3 14-3 13 0 26-20 26-41 0-5-25-9-56-9-49 0-55-2-44-15 10-13 9-15-10-15s-20-2-10-15c10-12 10-15-4-15-18 0-22-15-6-25 19-12 10-26-12-19-23 7-23 6-5-14 22-24 15-42-15-42-21 0-21 0 2-25 23-24 23-25 3-25-16 0-20-5-16-21 4-15 0-22-15-26-13-3-19-10-15-19 3-9-2-14-13-14-16 0-15-2 4-23 17-18 19-26 10-35s-9-12 1-12c11 0 11-3 1-15-7-8-28-15-46-15h-34v-50c0-49 0-50-32-50-31 0-31 0-13 20 26 28 27 50 4 50-22 0-24 11-8 27 9 9 6 13-12 17-43 9-79 13-79 10 0-2 11-29 25-60s25-61 25-66c0-10-83-4-139 9l-24 6 25 13c20 11 24 19 20 40l-5 27-18-21-17-22-7 30c-4 17-11 28-16 24-5-3-44 23-87 59-179 148-195 159-203 145-19-34-169-412-165-416 3-2 83 2 178 9 202 16 260 17 387 5l95-8-17 26c-21 31-21 31 38 5 39-17 49-19 57-8 17 24-2-63-23-102l-18-37 122-50c67-28 142-58 167-68 57-22 66-30 52-47s-6-28 15-20c13 5 15 0 10-28-3-19-9-68-13-109-7-79-19-114-34-105-8 5-262-124-279-141-2-2 577-4 1287-4h1292v72c0 67-2 73-31 99-17 15-63 37-103 49-39 12-73 25-76 29s-27 19-54 34c-42 24-54 26-85 17-40-11-113-12-151-1l-25 7 33 24c17 13 32 27 32 31 0 7-55 29-74 29-6 0-33-18-60-40s-50-39-52-37 5 30 16 62c24 71 25 75 2 75-10 0-23 5-30 12-9 9-12 9-12 0 0-7-10-12-22-12-20 0-20-1-5-18 10-10 17-22 17-25 0-4-27-7-61-7-33 0-58 4-55 9s-13 11-36 15l-41 7 37 38c35 35 36 38 19 53-10 9-29 19-43 23s-34 13-46 20c-21 13-57 18-128 16-38-1-39-1-21-21 14-15 21-17 32-8 11 8 19 6 38-12 27-25 25-40-7-40-14 0-18 5-14 15 3 10-1 15-13 15-10 0-21-7-25-15-3-8-10-15-16-15s-8 4-5 10c3 5-12 12-34 16-23 4-38 10-35 15s-5 9-17 9c-21 0-20 3 14 38 27 27 36 44 31 56-4 11-14 16-25 13-10-3-28 6-44 23-24 26-25 29-8 33s17 4-1 12c-13 6-21 4-24-3-2-7-18-12-35-12-24 0-28 3-19 12 7 7 12 18 12 25 0 22-26 14-40-12-7-14-20-25-28-25-12 0-12 4 3 20s16 22 5 36c-16 18-90 58-90 48 0-4-9 1-19 10-12 11-21 14-26 7-10-17-22-13-28 8-4 15-11 18-27 14s-27 0-37 13c-14 18-16 17-45-19-16-20-37-37-46-37-11 0-7 9 16 33l32 33-23 22c-13 12-33 22-45 22-13 0-34 7-47 16s-30 14-37 11c-7-2-28 9-46 25-33 28-60 33-54 9 1-6-8-11-20-11-17 0-19 3-10 12s7 17-10 35-18 23-6 23c23 0 20 48-5 61-15 8-22 8-28-2-6-11-16-6-41 18-28 27-41 32-92 35l-60 3 33 37c37 43 34 58-13 58-18 0-35 3-39 6-11 11 5 34 23 34 27 0 33 33 14 77-9 21-18 46-20 55-4 19-105 291-110 297-2 2-6-2-9-10zm-19-399c8 0 14-7 14-15 0-18-31-20-48-3s-15 31 4 24c9-3 22-6 30-6zm85-53c-13-13-26-3-16 12 3 6 11 8 17 5 6-4 6-10-1-17zm54-67c3-5-1-10-10-10s-13 5-10 10c3 6 8 10 10 10s7-4 10-10zm-330-80c3-5-1-10-10-10s-13 5-10 10c3 6 8 10 10 10s7-4 10-10zm390 0c3-5-3-10-15-10s-18 5-15 10c3 6 10 10 15 10s12-4 15-10zm45 0c0-5-7-10-16-10-8 0-12 5-9 10 3 6 10 10 16 10 5 0 9-4 9-10zm160-201c0-11-7-19-16-19-14 0-14 3-4 15 10 13 9 15-10 15s-20 2-10 15c16 19 40 3 40-26zm99-23c14-17 4-46-16-46-8 0-11 5-8 10 3 6-1 10-9 10-19 0-21 11-4 28 15 15 23 15 37-2zm99-9c3-12-4-17-22-17-28 0-33 9-14 28 15 15 32 10 36-11zm-8-30c0-2-10-12-22-23l-23-19 19 23c18 21 26 27 26 19zm-913-104c-3-10-5-4-5 12 0 17 2 24 5 18 2-7 2-21 0-30zm1153 27c0-5-5-10-11-10-5 0-7 5-4 10 3 6 8 10 11 10 2 0 4-4 4-10zm35-69c-3-6-11-11-17-11s-6 6 2 15c14 17 26 13 15-4z"/><path d="m3550 1265c-10-13-9-15 9-15 11 0 21 4 21 9 0 18-18 21-30 6z"/><path d="m3600 1265c-10-12-10-15 3-15 19 0 31 16 18 24-5 3-14-1-21-9z"/><path d="m3655 1270c-3-5 1-10 10-10s13 5 10 10c-3 6-8 10-10 10s-7-4-10-10z"/><path d="m1818 1142c-192-109-206-119-201-141 4-17 2-22-6-17-6 4-11 16-11 27 0 12-7 19-20 19-26 0-26-4 10-100 35-95 34-90 15-90-20 0-20 1 19-69l35-61h-81-81l-315-187c-173-102-321-186-328-185-8 1-27 3-44 4-16 1-30 5-30 10s-11 1-25-8c-23-15-45-15-90 2-13 5-16 1-13-21 3-26-1-29-56-48-53-18-57-21-38-31 18-10 2-22-151-116-94-58-176-106-183-108-6-2-14 7-17 19-4 14-11 20-21 16-12-5-16 1-17 26-1 30-1 30-8 7-4-14-11-40-14-57l-7-33h840 840l5 28c4 15 13 39 21 54 8 14 14 38 14 53 0 21 8 30 45 46 29 13 43 24 39 32-4 7-20 31-36 54-15 23-24 44-19 48 10 6 444 183 471 192 8 2-4-13-27-35-24-22-43-41-43-44 0-2 24-1 53 2 46 4 52 7 50 27-2 12 4 41 12 64 18 51 18 46-2 51-13 4-31 44-63 141-24 76-47 137-50 137s-23-23-45-51l-39-51-30 36-31 35-210 7c-115 4-218 10-228 13-13 5 17 26 117 81 97 53 132 77 125 86-7 8 3 15 36 24 25 7 47 16 50 19 2 4 7 45 10 91 11 141 17 141-227 2zm142-717c-1-5-12-23-25-40l-25-30v70l1 70 24-30c14-16 25-34 25-40zm-977-141c36-6 37-7 18-20-11-8-23-28-26-46-7-28-8-29-18-12-5 10-11 21-13 22-1 2-23-9-49-24l-47-27 32 62c23 47 35 61 48 57 9-3 34-8 55-12z"/><path d="m3938 1088c9-9 15-9 24 0s7 12-12 12-21-3-12-12z"/><path d="m3428 638c-27-18-48-36-48-40 0-5 18-8 40-8 32 0 40-4 40-17 0-10-36-141-80-292s-78-276-76-279c2-2 23-2 46 0l42 3-23 29-23 29 52-7 52-7v38c0 21 7 156 16 301 8 145 14 267 12 273-2 5-24-5-50-23z"/><path d="m6010 339c0-5 5-7 10-4 6 4 17 2 24-4 10-9 15-8 20 4 4 11-2 15-24 15-17 0-30-5-30-11z"/><path d="m2040 20c0-13 7-20 20-20 18 0 19 3 10 20-6 11-15 20-20 20-6 0-10-9-10-20z"/><path d="m3780 21c0-12 5-21 10-21 6 0 10 6 10 14s-4 18-10 21c-5 3-10-3-10-14z"/></g></svg>